<?xml version="1.0" encoding="UTF-8"?>
<svg id="Layer_1" xmlns="http://www.w3.org/2000/svg" version="1.1" viewBox="0 0 800 800">
  <!-- Generator: Adobe Illustrator 29.3.1, SVG Export Plug-In . SVG Version: 2.1.0 Build 151)  -->
  <defs>
    <style>
      .st0 {
        fill: #414042;
      }
    </style>
  </defs>
  <path class="st0" d="M306.45,676.96c-6.94,0-12.54-.67-16.8-2-4.28-1.34-6.4-3.6-6.4-6.8,0-3.73,2.12-6.66,6.4-8.8,4.26-2.12,10.92-4,20-5.6,20.26-3.72,35.72-10.26,46.4-19.6,10.66-9.33,16-23.6,16-42.8v-310.4c0-24.52-.54-43.33-1.6-56.4-1.08-13.06-2.8-22.26-5.2-27.6-2.4-5.33-5.74-8.26-10-8.8-7.47-1.6-15.34-2.53-23.6-2.8-8.28-.26-19.34-.4-33.2-.4h-37.6c-12.8,0-25.47,2.54-38,7.6-12.54,5.07-21.74,12.94-27.6,23.6-1.6,2.67-4.28,6.54-8,11.6-3.74,5.08-7.74,9.48-12,13.2-4.27,3.74-8.54,5.6-12.8,5.6-2.14,0-3.6-1.06-4.4-3.2-.8-2.12-1.2-4.52-1.2-7.2,0-5.33,1.32-10.66,4-16,7.46-15.46,12.93-29.2,16.4-41.2,3.46-12,6.26-26.26,8.4-42.8,1.06-9.06,3.06-14.4,6-16,2.92-1.6,5.46-2.4,7.6-2.4s5.46,3.2,10,9.6c4.53,6.4,7.86,11.74,10,16,3.2,5.34,10.53,9.34,22,12,11.46,2.68,22.8,4,34,4h281.6c18.66,0,33.86-1.06,45.6-3.2,11.72-2.12,21.86-5.06,30.4-8.8,6.4-3.2,11.6-6.66,15.6-10.4,4-3.73,9.2-5.6,15.6-5.6,1.6,0,2.92,2,4,6,1.06,4,1.6,8.14,1.6,12.4,0,2.68-.4,6.4-1.2,11.2s-1.48,8.54-2,11.2c-1.6,9.6-3.08,16.54-4.4,20.8-1.34,4.27-2.27,8-2.8,11.2-.54,3.2-.8,8.27-.8,15.2v9.6c0,4.8-1.08,10.27-3.2,16.4-2.14,6.14-5.34,9.2-9.6,9.2-3.74,0-6.68-2.93-8.8-8.8-2.14-5.86-4.27-13.86-6.4-24-2.14-11.2-8.54-20.12-19.2-26.8-10.67-6.66-28.8-10-54.4-10h-80.8c-11.74,0-20.54,1.6-26.4,4.8-5.88,3.2-9.6,11.2-11.2,24-1.6,12.8-2.4,33.88-2.4,63.2v314.4c0,19.2,5.6,33.47,16.8,42.8,11.2,9.34,26.66,15.88,46.4,19.6,9.06,1.6,15.72,3.48,20,5.6,4.26,2.14,6.4,5.07,6.4,8.8,0,3.2-2.14,5.46-6.4,6.8-4.28,1.33-9.88,2-16.8,2-14.4,0-26.28-.4-35.6-1.2-9.34-.8-18.27-1.47-26.8-2-8.54-.54-18.94-.8-31.2-.8-13.34,0-24.94.26-34.8.8-9.88.53-20,1.2-30.4,2-10.4.8-22.8,1.2-37.2,1.2Z"/>
</svg>